<svg width="16" height="16" viewBox="0 0 16 16" fill="none" xmlns="http://www.w3.org/2000/svg">
<path d="M8.819 0.614747C8.705 0.520747 8.554 0.481747 8.408 0.508747L0.408 2.00875C0.171 2.05275 0 2.25875 0 2.49975V13.4997C0 13.7397 0.171 13.9467 0.408 13.9907L8.408 15.4907C8.438 15.4967 8.47 15.4997 8.5 15.4997C8.615 15.4997 8.729 15.4597 8.819 15.3847C8.934 15.2897 9 15.1477 9 14.9997V0.999747C9 0.850747 8.934 0.709747 8.819 0.614747ZM8 14.3967L1 13.0847V2.91475L8 1.60275V14.3967Z" fill="white"/>
<path d="M15.5 2.49969H8.5C8.224 2.49969 8 2.72369 8 2.99969C8 3.27569 8.224 3.49969 8.5 3.49969H15V12.4997H8.5C8.224 12.4997 8 12.7237 8 12.9997C8 13.2757 8.224 13.4997 8.5 13.4997H15.5C15.776 13.4997 16 13.2757 16 12.9997V2.99969C16 2.72369 15.776 2.49969 15.5 2.49969Z" fill="white"/>
<path d="M10.5 4.49969H8.5C8.224 4.49969 8 4.72369 8 4.99969C8 5.27569 8.224 5.49969 8.5 5.49969H10.5C10.776 5.49969 11 5.27569 11 4.99969C11 4.72369 10.776 4.49969 10.5 4.49969Z" fill="white"/>
<path d="M10.5 6.49969H8.5C8.224 6.49969 8 6.72369 8 6.99969C8 7.27569 8.224 7.49969 8.5 7.49969H10.5C10.776 7.49969 11 7.27569 11 6.99969C11 6.72369 10.776 6.49969 10.5 6.49969Z" fill="white"/>
<path d="M10.5 8.49969H8.5C8.224 8.49969 8 8.72369 8 8.99969C8 9.27569 8.224 9.49969 8.5 9.49969H10.5C10.776 9.49969 11 9.27569 11 8.99969C11 8.72369 10.776 8.49969 10.5 8.49969Z" fill="white"/>
<path d="M10.5 10.4997H8.5C8.224 10.4997 8 10.7237 8 10.9997C8 11.2757 8.224 11.4997 8.5 11.4997H10.5C10.776 11.4997 11 11.2757 11 10.9997C11 10.7237 10.776 10.4997 10.5 10.4997Z" fill="white"/>
<path d="M13.5 4.49969H12.5C12.224 4.49969 12 4.72369 12 4.99969C12 5.27569 12.224 5.49969 12.5 5.49969H13.5C13.776 5.49969 14 5.27569 14 4.99969C14 4.72369 13.776 4.49969 13.5 4.49969Z" fill="white"/>
<path d="M13.5 6.49969H12.5C12.224 6.49969 12 6.72369 12 6.99969C12 7.27569 12.224 7.49969 12.5 7.49969H13.5C13.776 7.49969 14 7.27569 14 6.99969C14 6.72369 13.776 6.49969 13.5 6.49969Z" fill="white"/>
<path d="M13.5 8.49969H12.5C12.224 8.49969 12 8.72369 12 8.99969C12 9.27569 12.224 9.49969 12.5 9.49969H13.5C13.776 9.49969 14 9.27569 14 8.99969C14 8.72369 13.776 8.49969 13.5 8.49969Z" fill="white"/>
<path d="M13.5 10.4997H12.5C12.224 10.4997 12 10.7237 12 10.9997C12 11.2757 12.224 11.4997 12.5 11.4997H13.5C13.776 11.4997 14 11.2757 14 10.9997C14 10.7237 13.776 10.4997 13.5 10.4997Z" fill="white"/>
<path d="M6.87695 9.67062L3.37695 5.67062C3.19295 5.46162 2.87795 5.44162 2.67095 5.62362C2.46295 5.80562 2.44195 6.12162 2.62395 6.32862L6.12395 10.3286C6.22295 10.4416 6.36095 10.4996 6.49995 10.4996C6.61695 10.4996 6.73395 10.4586 6.82995 10.3756C7.03795 10.1936 7.05895 9.87862 6.87695 9.67062Z" fill="white"/>
<path d="M6.80697 5.10569C6.58897 4.93469 6.27497 4.97569 6.10497 5.19269L2.60497 9.69268C2.43597 9.91068 2.47497 10.2257 2.69297 10.3947C2.78497 10.4657 2.89297 10.4997 2.99997 10.4997C3.14797 10.4997 3.29597 10.4337 3.39397 10.3077L6.89397 5.80769C7.06397 5.58869 7.02497 5.27469 6.80697 5.10569Z" fill="white"/>
</svg>
