<svg width="25" height="15" viewBox="0 0 25 15" fill="none" xmlns="http://www.w3.org/2000/svg">
<path d="M24 2.00195C24.5523 2.00195 25 1.55424 25 1.00195C25 0.449668 24.5523 0.00195312 24 0.00195312V2.00195ZM1 0.00195312C0.447715 0.00195312 0 0.449668 0 1.00195C0 1.55424 0.447715 2.00195 1 2.00195V0.00195312ZM24 8.00195C24.5523 8.00195 25 7.55424 25 7.00195C25 6.44967 24.5523 6.00195 24 6.00195V8.00195ZM1 6.00195C0.447715 6.00195 0 6.44967 0 7.00195C0 7.55424 0.447715 8.00195 1 8.00195V6.00195ZM24 14.002C24.5523 14.002 25 13.5542 25 13.002C25 12.4497 24.5523 12.002 24 12.002V14.002ZM1 12.002C0.447715 12.002 0 12.4497 0 13.002C0 13.5542 0.447715 14.002 1 14.002V12.002ZM24 0.00195312H1V2.00195H24V0.00195312ZM24 6.00195H1V8.00195H24V6.00195ZM24 12.002H1V14.002H24V12.002Z" fill="#999999"/>
</svg>
