<svg width="16" height="16" viewBox="0 0 16 16" fill="none" xmlns="http://www.w3.org/2000/svg">
<path d="M8 3.43942C6.36213 3.43942 5.0296 4.77195 5.0296 6.40982C5.0296 8.04769 6.36213 9.38022 8 9.38022C9.63787 9.38022 10.9704 8.04769 10.9704 6.40982C10.9704 4.77195 9.6379 3.43942 8 3.43942ZM8 8.12954C7.05175 8.12954 6.28029 7.35807 6.28029 6.40982C6.28029 5.46157 7.05175 4.69011 8 4.69011C8.94825 4.69011 9.71972 5.46157 9.71972 6.40982C9.71972 7.35807 8.94825 8.12954 8 8.12954Z" fill="#9191AF"/>
<path d="M7.99999 0C4.46559 0 1.59015 2.87547 1.59015 6.40984V6.58703C1.59015 8.37453 2.61496 10.4575 4.63621 12.7781C6.10146 14.4603 7.54624 15.6333 7.60699 15.6824L7.99999 16L8.39299 15.6825C8.45377 15.6333 9.89855 14.4603 11.3638 12.7781C13.385 10.4575 14.4098 8.37456 14.4098 6.58706V6.40987C14.4098 2.87547 11.5344 0 7.99999 0ZM13.1591 6.58706C13.1591 9.60784 9.26693 13.2646 7.99999 14.3746C6.73271 13.2642 2.84084 9.60763 2.84084 6.58706V6.40987C2.84084 3.56512 5.15524 1.25072 7.99999 1.25072C10.8447 1.25072 13.1591 3.56512 13.1591 6.40987V6.58706Z" fill="#9191AF"/>
</svg>
