<svg width="22" height="20" viewBox="0 0 22 20" fill="none" xmlns="http://www.w3.org/2000/svg">
<path d="M21.379 8.42844L11.6759 1.33566C11.4888 1.19891 11.2346 1.19891 11.0475 1.33566L1.34436 8.42844C1.10736 8.60172 1.05587 8.93397 1.22942 9.17059C1.40298 9.4072 1.73581 9.45853 1.97278 9.28534L11.3617 2.42218L20.7505 9.2853C20.8452 9.35455 20.9552 9.38788 21.0643 9.38788C21.2281 9.38788 21.3897 9.31264 21.4939 9.17055C21.6675 8.93397 21.616 8.60172 21.379 8.42844Z" fill="white" stroke="white" stroke-width="0.5"/>
<path d="M18.8079 9.40552C18.5142 9.40552 18.276 9.64325 18.276 9.93651V18.3885H14.0212V13.7749C14.0212 12.3108 12.8281 11.1197 11.3617 11.1197C9.89532 11.1197 8.70222 12.3109 8.70222 13.7749V18.3885H4.44739V9.93655C4.44739 9.64329 4.20922 9.40556 3.91553 9.40556C3.62183 9.40556 3.38367 9.64329 3.38367 9.93655V18.9196C3.38367 19.2128 3.62183 19.4505 3.91553 19.4505H9.23408C9.51379 19.4505 9.74267 19.2348 9.76386 18.9609C9.76514 18.9485 9.76594 18.9349 9.76594 18.9196V13.7749C9.76594 12.8964 10.4818 12.1817 11.3617 12.1817C12.2417 12.1817 12.9575 12.8965 12.9575 13.7749V18.9196C12.9575 18.9348 12.9583 18.9482 12.9596 18.9604C12.9805 19.2345 13.2095 19.4505 13.4894 19.4505H18.8079C19.1017 19.4505 19.3398 19.2128 19.3398 18.9196V9.93655C19.3397 9.64325 19.1016 9.40552 18.8079 9.40552Z" fill="white" stroke="white" stroke-width="0.5"/>
</svg>
