<svg width="22" height="22" viewBox="0 0 22 22" fill="none" xmlns="http://www.w3.org/2000/svg">
<path fill-rule="evenodd" clip-rule="evenodd" d="M17.0234 2.91967H19.8012C20.7453 2.91967 21.51 3.68305 21.51 4.62561V19.7698C21.51 20.7124 20.7453 21.4764 19.8012 21.4764H2.70938C1.76528 21.4764 1 20.7124 1 19.7698V4.62561C1 3.68305 1.76528 2.91967 2.70938 2.91967H5.48655V1.63989C5.48655 1.28603 5.77369 1 6.12749 1C6.48129 1 6.76843 1.28603 6.76843 1.63989V2.91967H10.614V1.63989C10.614 1.28603 10.9012 1 11.255 1C11.6088 1 11.8959 1.28603 11.8959 1.63989V2.91967H15.7415V1.63989C15.7415 1.28603 16.028 1 16.3825 1C16.7369 1 17.0234 1.28603 17.0234 1.63989V2.91967ZM19.8012 20.1967C20.0364 20.1967 20.2281 20.0053 20.2281 19.7698V4.62561C20.2281 4.39077 20.0364 4.19944 19.8012 4.19944H17.0234V5.47922C17.0234 5.83308 16.7369 6.11911 16.3825 6.11911C16.028 6.11911 15.7415 5.83308 15.7415 5.47922V4.19944H11.8959V5.47922C11.8959 5.83308 11.6088 6.11911 11.255 6.11911C10.9012 6.11911 10.614 5.83308 10.614 5.47922V4.19944H6.76843V5.47922C6.76843 5.83308 6.48129 6.11911 6.12749 6.11911C5.77369 6.11911 5.48655 5.83308 5.48655 5.47922V4.19944H2.70938C2.47351 4.19944 2.28187 4.39077 2.28187 4.62561V19.7698C2.28187 20.0053 2.47351 20.1967 2.70938 20.1967H19.8012Z" fill="white"/>
<path d="M17.0234 2.91967H16.7734V3.16967H17.0234V2.91967ZM5.48655 2.91967V3.16967H5.73655V2.91967H5.48655ZM6.76843 2.91967H6.51843V3.16967H6.76843V2.91967ZM10.614 2.91967V3.16967H10.864V2.91967H10.614ZM11.8959 2.91967H11.6459V3.16967H11.8959V2.91967ZM15.7415 2.91967V3.16967H15.9915V2.91967H15.7415ZM17.0234 4.19944V3.94944H16.7734V4.19944H17.0234ZM15.7415 4.19944H15.9915V3.94944H15.7415V4.19944ZM11.8959 4.19944V3.94944H11.6459V4.19944H11.8959ZM10.614 4.19944H10.864V3.94944H10.614V4.19944ZM6.76843 4.19944V3.94944H6.51843V4.19944H6.76843ZM5.48655 4.19944H5.73655V3.94944H5.48655V4.19944ZM19.8012 2.66967H17.0234V3.16967H19.8012V2.66967ZM21.76 4.62561C21.76 3.5446 20.883 2.66967 19.8012 2.66967V3.16967C20.6076 3.16967 21.26 3.82151 21.26 4.62561H21.76ZM21.76 19.7698V4.62561H21.26V19.7698H21.76ZM19.8012 21.7264C20.8831 21.7264 21.76 20.8507 21.76 19.7698H21.26C21.26 20.5741 20.6075 21.2264 19.8012 21.2264V21.7264ZM2.70938 21.7264H19.8012V21.2264H2.70938V21.7264ZM0.75 19.7698C0.75 20.8509 1.62759 21.7264 2.70938 21.7264V21.2264C1.90296 21.2264 1.25 20.5739 1.25 19.7698H0.75ZM0.75 4.62561V19.7698H1.25V4.62561H0.75ZM2.70938 2.66967C1.62771 2.66967 0.75 3.54447 0.75 4.62561H1.25C1.25 3.82163 1.90284 3.16967 2.70938 3.16967V2.66967ZM5.48655 2.66967H2.70938V3.16967H5.48655V2.66967ZM5.23655 1.63989V2.91967H5.73655V1.63989H5.23655ZM6.12749 0.75C5.63617 0.75 5.23655 1.14741 5.23655 1.63989H5.73655C5.73655 1.42465 5.91122 1.25 6.12749 1.25V0.75ZM7.01843 1.63989C7.01843 1.14741 6.61881 0.75 6.12749 0.75V1.25C6.34376 1.25 6.51843 1.42465 6.51843 1.63989H7.01843ZM7.01843 2.91967V1.63989H6.51843V2.91967H7.01843ZM10.614 2.66967H6.76843V3.16967H10.614V2.66967ZM10.364 1.63989V2.91967H10.864V1.63989H10.364ZM11.255 0.75C10.7637 0.75 10.364 1.14741 10.364 1.63989H10.864C10.864 1.42465 11.0387 1.25 11.255 1.25V0.75ZM12.1459 1.63989C12.1459 1.14741 11.7463 0.75 11.255 0.75V1.25C11.4713 1.25 11.6459 1.42465 11.6459 1.63989H12.1459ZM12.1459 2.91967V1.63989H11.6459V2.91967H12.1459ZM15.7415 2.66967H11.8959V3.16967H15.7415V2.66967ZM15.4915 1.63989V2.91967H15.9915V1.63989H15.4915ZM16.3825 0.75C15.8903 0.75 15.4915 1.14757 15.4915 1.63989H15.9915C15.9915 1.42449 16.1657 1.25 16.3825 1.25V0.75ZM17.2734 1.63989C17.2734 1.14757 16.8746 0.75 16.3825 0.75V1.25C16.5992 1.25 16.7734 1.42449 16.7734 1.63989H17.2734ZM17.2734 2.91967V1.63989H16.7734V2.91967H17.2734ZM19.9781 19.7698C19.9781 19.8671 19.8985 19.9467 19.8012 19.9467V20.4467C20.1744 20.4467 20.4781 20.1435 20.4781 19.7698H19.9781ZM19.9781 4.62561V19.7698H20.4781V4.62561H19.9781ZM19.8012 4.44944C19.8988 4.44944 19.9781 4.52923 19.9781 4.62561H20.4781C20.4781 4.25231 20.1741 3.94944 19.8012 3.94944V4.44944ZM17.0234 4.44944H19.8012V3.94944H17.0234V4.44944ZM17.2734 5.47922V4.19944H16.7734V5.47922H17.2734ZM16.3825 6.36911C16.8746 6.36911 17.2734 5.97153 17.2734 5.47922H16.7734C16.7734 5.69462 16.5992 5.86911 16.3825 5.86911V6.36911ZM15.4915 5.47922C15.4915 5.97153 15.8903 6.36911 16.3825 6.36911V5.86911C16.1657 5.86911 15.9915 5.69462 15.9915 5.47922H15.4915ZM15.4915 4.19944V5.47922H15.9915V4.19944H15.4915ZM11.8959 4.44944H15.7415V3.94944H11.8959V4.44944ZM12.1459 5.47922V4.19944H11.6459V5.47922H12.1459ZM11.255 6.36911C11.7463 6.36911 12.1459 5.9717 12.1459 5.47922H11.6459C11.6459 5.69446 11.4713 5.86911 11.255 5.86911V6.36911ZM10.364 5.47922C10.364 5.9717 10.7637 6.36911 11.255 6.36911V5.86911C11.0387 5.86911 10.864 5.69446 10.864 5.47922H10.364ZM10.364 4.19944V5.47922H10.864V4.19944H10.364ZM6.76843 4.44944H10.614V3.94944H6.76843V4.44944ZM7.01843 5.47922V4.19944H6.51843V5.47922H7.01843ZM6.12749 6.36911C6.61881 6.36911 7.01843 5.9717 7.01843 5.47922H6.51843C6.51843 5.69446 6.34376 5.86911 6.12749 5.86911V6.36911ZM5.23655 5.47922C5.23655 5.9717 5.63617 6.36911 6.12749 6.36911V5.86911C5.91122 5.86911 5.73655 5.69446 5.73655 5.47922H5.23655ZM5.23655 4.19944V5.47922H5.73655V4.19944H5.23655ZM2.70938 4.44944H5.48655V3.94944H2.70938V4.44944ZM2.53187 4.62561C2.53187 4.52947 2.61095 4.44944 2.70938 4.44944V3.94944C2.33607 3.94944 2.03187 4.25207 2.03187 4.62561H2.53187ZM2.53187 19.7698V4.62561H2.03187V19.7698H2.53187ZM2.70938 19.9467C2.6112 19.9467 2.53187 19.8669 2.53187 19.7698H2.03187C2.03187 20.1438 2.33583 20.4467 2.70938 20.4467V19.9467ZM19.8012 19.9467H2.70938V20.4467H19.8012V19.9467Z" fill="white"/>
<rect x="5.48657" y="8.67865" width="2.56375" height="1.91967" fill="white"/>
<rect x="5.48657" y="11.8781" width="2.56375" height="1.91967" fill="white"/>
<rect x="5.48657" y="15.0775" width="2.56375" height="1.91967" fill="white"/>
<rect x="9.97308" y="15.0775" width="2.56375" height="1.91967" fill="white"/>
<rect x="9.97308" y="11.8781" width="2.56375" height="1.91967" fill="white"/>
<rect x="9.97308" y="8.67865" width="2.56375" height="1.91967" fill="white"/>
<rect x="14.4597" y="15.0775" width="2.56375" height="1.91967" fill="white"/>
<rect x="14.4597" y="11.8781" width="2.56375" height="1.91967" fill="white"/>
<rect x="14.4597" y="8.67865" width="2.56375" height="1.91967" fill="white"/>
</svg>
