<svg width="19" height="23" viewBox="0 0 19 23" fill="none" xmlns="http://www.w3.org/2000/svg">
<path fill-rule="evenodd" clip-rule="evenodd" d="M9.64608 11.6781H9.57814C8.33395 11.6569 7.32756 11.2203 6.58869 10.3851C4.95384 8.54518 5.22561 5.39104 5.25533 5.09004C5.36149 2.81347 6.44856 1.73242 7.3403 1.22793C8.22779 0.723435 9.1535 0.647125 9.62485 0.647125H9.65032H9.66731H9.69703C10.5548 0.664083 11.3234 0.867575 11.9816 1.24488C12.8648 1.74938 13.9349 2.83043 14.0411 5.09004C14.0708 5.39104 14.3426 8.54518 12.7077 10.3851C11.9646 11.2203 10.9582 11.6569 9.71402 11.6781H9.67156H9.64608ZM6.39156 5.17573C6.3904 5.18203 6.38911 5.18903 6.38911 5.19603C6.38487 5.22147 6.09611 8.117 7.44221 9.62623C7.97301 10.2282 8.69064 10.525 9.62485 10.5335H9.64608H9.66731C10.6058 10.525 11.3191 10.2282 11.8542 9.62623C13.2045 8.10852 12.9073 5.22571 12.903 5.19603C12.8988 5.18755 12.8988 5.17484 12.8988 5.16212V5.16212C12.7672 2.28778 10.8181 1.82145 9.67156 1.79601H9.63758H9.6206C8.69489 1.79601 6.53349 2.12245 6.39336 5.16212C6.39336 5.16593 6.3925 5.17059 6.39156 5.17573Z" fill="white"/>
<path d="M9.57814 11.6781L9.57388 11.9281H9.57814V11.6781ZM6.58869 10.3851L6.77593 10.2194L6.77558 10.219L6.58869 10.3851ZM5.25533 5.09004L5.50446 5.11465L5.50506 5.10169L5.25533 5.09004ZM7.3403 1.22793L7.4634 1.44552L7.46385 1.44527L7.3403 1.22793ZM9.69703 0.647125L9.70198 0.397125H9.69703V0.647125ZM11.9816 1.24488L11.8572 1.46177L11.8576 1.46197L11.9816 1.24488ZM14.0411 5.09004L13.791 5.10179L13.7923 5.11461L14.0411 5.09004ZM12.7077 10.3851L12.8945 10.5513L12.8946 10.5511L12.7077 10.3851ZM9.71402 11.6781V11.9282L9.71828 11.9281L9.71402 11.6781ZM6.38911 5.19603L6.6357 5.2372L6.63911 5.21675V5.19603H6.38911ZM6.39156 5.17573L6.63744 5.22093L6.63744 5.22093L6.39156 5.17573ZM7.44221 9.62623L7.62973 9.46089L7.62878 9.45983L7.44221 9.62623ZM9.62485 10.5335L9.62258 10.7835H9.62485V10.5335ZM9.66731 10.5335L9.66731 10.7835L9.66957 10.7835L9.66731 10.5335ZM11.8542 9.62623L11.6674 9.46005L11.6673 9.46015L11.8542 9.62623ZM12.903 5.19603L13.1505 5.16062L13.1448 5.1204L13.1266 5.08407L12.903 5.19603ZM12.8988 5.16212H13.1491L13.1485 5.15068L12.8988 5.16212ZM9.67156 1.79601L9.6771 1.54601H9.67156V1.79601ZM6.39336 5.16212L6.14336 5.15059V5.16212H6.39336ZM9.57814 11.9281H9.64608V11.4281H9.57814V11.9281ZM6.40145 10.5507C7.19225 11.4446 8.26826 11.9058 9.57388 11.9281L9.58239 11.4282C8.39964 11.408 7.46287 10.9959 6.77593 10.2194L6.40145 10.5507ZM5.00654 5.06548C4.99074 5.22546 4.91381 6.10974 5.04975 7.19164C5.18504 8.26841 5.5354 9.57607 6.40181 10.5511L6.77558 10.219C6.00713 9.3542 5.67595 8.16484 5.54585 7.12931C5.41638 6.09892 5.4902 5.25563 5.50412 5.11461L5.00654 5.06548ZM7.2172 1.01033C6.25715 1.55347 5.1161 2.70878 5.0056 5.0784L5.50506 5.10169C5.60688 2.91816 6.63998 1.91136 7.4634 1.44552L7.2172 1.01033ZM9.62485 0.397125C9.13175 0.397125 8.15703 0.47609 7.21675 1.01059L7.46385 1.44527C8.29855 0.97078 9.17524 0.897125 9.62485 0.897125V0.397125ZM9.65032 0.397125H9.62485V0.897125H9.65032V0.397125ZM9.66731 0.397125H9.65032V0.897125H9.66731V0.397125ZM9.69703 0.397125H9.66731V0.897125H9.69703V0.397125ZM12.1059 1.02799C11.4074 0.627575 10.5969 0.414867 9.70198 0.397174L9.69209 0.897076C10.5127 0.913299 11.2394 1.10758 11.8572 1.46177L12.1059 1.02799ZM14.2908 5.07831C14.1803 2.72704 13.0575 1.57155 12.1056 1.0278L11.8576 1.46197C12.6721 1.9272 13.6895 2.93382 13.7913 5.10178L14.2908 5.07831ZM12.8946 10.5511C13.761 9.57607 14.1114 8.26841 14.2467 7.19164C14.3826 6.10974 14.3057 5.22546 14.2899 5.06548L13.7923 5.11461C13.8062 5.25563 13.88 6.09892 13.7506 7.12931C13.6204 8.16484 13.2893 9.3542 12.5208 10.219L12.8946 10.5511ZM9.71828 11.9281C11.024 11.9058 12.0997 11.4445 12.8945 10.5513L12.5209 10.2189C11.8295 10.996 10.8924 11.408 9.70976 11.4282L9.71828 11.9281ZM9.67156 11.9281H9.71402V11.4281H9.67156V11.9281ZM9.64608 11.9281H9.67156V11.4281H9.64608V11.9281ZM6.63911 5.19603C6.63911 5.20742 6.63809 5.21586 6.6376 5.21947C6.63716 5.22264 6.63671 5.22486 6.63744 5.22093L6.14568 5.13054C6.14517 5.13331 6.13911 5.16254 6.13911 5.19603H6.63911ZM7.62878 9.45983C7.00917 8.76512 6.75189 7.72928 6.65793 6.82876C6.56442 5.93247 6.63774 5.225 6.6357 5.2372L6.14252 5.15487C6.13624 5.19249 6.06306 5.94551 6.16063 6.88065C6.25776 7.81156 6.52916 8.97811 7.25564 9.79264L7.62878 9.45983ZM9.62711 10.2835C8.75055 10.2755 8.10544 10.0004 7.62973 9.46089L7.25469 9.79157C7.84057 10.456 8.63074 10.7745 9.62258 10.7835L9.62711 10.2835ZM9.64608 10.2835H9.62485V10.7835H9.64608V10.2835ZM9.66731 10.2835H9.64608V10.7835H9.66731V10.2835ZM11.6673 9.46015C11.1869 10.0007 10.5454 10.2755 9.66505 10.2835L9.66957 10.7835C10.6661 10.7745 11.4514 10.4558 12.0411 9.79231L11.6673 9.46015ZM12.6556 5.23144C12.655 5.22772 12.7296 5.93531 12.6379 6.82756C12.5456 7.72602 12.2894 8.76101 11.6674 9.46005L12.041 9.79241C12.7694 8.97374 13.0397 7.80846 13.1353 6.87868C13.2315 5.94267 13.1553 5.19401 13.1505 5.16062L12.6556 5.23144ZM12.6488 5.16212C12.6488 5.16587 12.6486 5.18409 12.6504 5.20334C12.652 5.22096 12.6568 5.2626 12.6795 5.30799L13.1266 5.08407C13.1365 5.10389 13.1415 5.1212 13.1442 5.13264C13.1468 5.14419 13.1479 5.15321 13.1483 5.15799C13.149 5.16559 13.1488 5.17108 13.1488 5.16212H12.6488ZM12.6488 5.16212V5.16212H13.1488V5.16212H12.6488ZM9.66601 2.04595C10.2145 2.05812 10.9288 2.17618 11.517 2.61165C12.0936 3.03856 12.5861 3.79817 12.6491 5.17355L13.1485 5.15068C13.0799 3.65173 12.532 2.74101 11.8145 2.2098C11.1086 1.68716 10.2752 1.55934 9.6771 1.54607L9.66601 2.04595ZM9.63758 2.04601H9.67156V1.54601H9.63758V2.04601ZM9.6206 2.04601H9.63758V1.54601H9.6206V2.04601ZM6.64309 5.17363C6.7101 3.72025 7.254 2.95636 7.8537 2.54541C8.46752 2.1248 9.18045 2.04601 9.6206 2.04601V1.54601C9.13504 1.54601 8.30442 1.63044 7.57107 2.13296C6.82362 2.64515 6.21675 3.56431 6.14362 5.1506L6.64309 5.17363ZM6.63744 5.22093C6.63771 5.21943 6.63908 5.21219 6.64021 5.20442C6.64131 5.19684 6.64336 5.18129 6.64336 5.16212H6.14336C6.14336 5.1539 6.14381 5.1472 6.14422 5.14264C6.14464 5.13802 6.14512 5.13446 6.14542 5.13243C6.14588 5.12923 6.14635 5.12689 6.14568 5.13054L6.63744 5.22093Z" fill="white"/>
<path d="M18.3724 18.0472C18.3724 18.0429 18.3724 18.0387 18.3724 18.0344C18.3724 18.0005 18.3681 17.9666 18.3681 17.9285C18.3427 17.089 18.2875 15.1262 16.4445 14.4988C16.4318 14.4945 16.4148 14.4903 16.4021 14.486C14.487 13.9985 12.8946 12.8963 12.8776 12.8835C12.6186 12.7012 12.2619 12.7648 12.0793 13.0234C11.8967 13.282 11.9604 13.6381 12.2194 13.8204C12.2916 13.8713 13.9816 15.0456 16.0963 15.5883C17.0857 15.9402 17.1961 16.9958 17.2259 17.9624C17.2259 18.0005 17.2259 18.0344 17.2301 18.0684C17.2344 18.4499 17.2089 19.0392 17.1409 19.3783C16.453 19.7684 13.7566 21.1165 9.65459 21.1165C5.56959 21.1165 2.85616 19.7641 2.164 19.3741C2.09606 19.0349 2.06633 18.4457 2.07483 18.0641C2.07483 18.0302 2.07907 17.9963 2.07907 17.9581C2.1088 16.9915 2.2192 15.9359 3.20861 15.584C5.3233 15.0414 7.01335 13.8628 7.08554 13.8162C7.34457 13.6339 7.40826 13.2778 7.22567 13.0192C7.04308 12.7606 6.68638 12.697 6.42735 12.8793C6.41037 12.892 4.82647 13.9943 2.90287 14.4818C2.88588 14.486 2.87314 14.4903 2.8604 14.4945C1.01748 15.1262 0.962277 17.089 0.936799 17.9242C0.936799 17.9624 0.936799 17.9963 0.932552 18.0302C0.932552 18.0344 0.932552 18.0387 0.932552 18.0429C0.928306 18.2634 0.924059 19.3953 1.14912 19.9634C1.19158 20.0736 1.26802 20.1669 1.36993 20.2305C1.49732 20.3152 4.55046 22.2569 9.65884 22.2569C14.7672 22.2569 17.8204 20.311 17.9478 20.2305C18.0454 20.1669 18.1261 20.0736 18.1686 19.9634C18.3809 19.3995 18.3766 18.2676 18.3724 18.0472Z" fill="white" stroke="white" stroke-width="0.5"/>
</svg>
