<svg width="24" height="24" viewBox="0 0 24 24" fill="none" xmlns="http://www.w3.org/2000/svg">
<circle cx="17" cy="7" r="4" fill="url(#paint0_linear)" fill-opacity="0.6"/>
<path d="M16.4 13.6875C14.41 13.6875 12.8 15.3227 12.8 17.3438C12.8 19.3648 14.41 21 16.4 21C18.39 21 20 19.3648 20 17.3438C20 15.3227 18.39 13.6875 16.4 13.6875ZM18 17.5037C18 17.6383 17.89 17.75 17.7575 17.75H16.2425C16.11 17.75 16 17.6383 16 17.5037V15.5588C16 15.4242 16.11 15.3125 16.2425 15.3125H16.5575C16.69 15.3125 16.8 15.4242 16.8 15.5588V15.98C16.8 16.5088 17.2287 16.9375 17.7575 16.9375C17.89 16.9375 18 17.0492 18 17.1838V17.5037ZM12 17.3438C12 16.8571 12.0796 16.3885 12.2233 15.9497C12.3205 15.6529 12.1523 15.3125 11.84 15.3125C11.565 15.3125 11.2955 15.3788 11.0363 15.4708C10.5863 15.6306 10.1029 15.7188 9.6 15.7188C9.09681 15.7188 8.61459 15.6305 8.16379 15.4705C7.90462 15.3785 7.63502 15.3125 7.36 15.3125C5.505 15.3125 4 16.841 4 18.725V19.7812C4 20.4541 4.5375 21 5.2 21H9.6085C10.9404 21 12 18.6756 12 17.3438ZM9.6 14.5C11.3675 14.5 12.8 13.0451 12.8 11.25C12.8 9.45488 11.3675 8 9.6 8C7.8325 8 6.4 9.45488 6.4 11.25C6.4 13.0451 7.8325 14.5 9.6 14.5Z" fill="url(#paint1_linear)"/>
<defs>
<linearGradient id="paint0_linear" x1="12.2644" y1="8.04535" x2="16.2644" y2="17.5166" gradientUnits="userSpaceOnUse">
<stop stop-color="#E60909"/>
<stop offset="1" stop-color="#FA994F"/>
<stop offset="1" stop-color="#FA994F"/>
</linearGradient>
<linearGradient id="paint1_linear" x1="11.735" y1="-4.93795" x2="-9.27351" y2="19.5382" gradientUnits="userSpaceOnUse">
<stop stop-color="#3D4C5D"/>
<stop offset="1" stop-color="#3FBFFF"/>
</linearGradient>
</defs>
</svg>
